<svg width="15" height="16" viewBox="0 0 15 16" fill="none" xmlns="http://www.w3.org/2000/svg">
<g filter="url(#filter0_i_412_221)">
<path d="M1.875 1.14966C1.62636 1.14966 1.3879 1.24843 1.21209 1.42425C1.03627 1.60006 0.9375 1.83852 0.9375 2.08716V13.3372C0.9375 13.5858 1.03627 13.8243 1.21209 14.0001C1.3879 14.1759 1.62636 14.2747 1.875 14.2747H13.125C13.3736 14.2747 13.6121 14.1759 13.7879 14.0001C13.9637 13.8243 14.0625 13.5858 14.0625 13.3372V2.08716C14.0625 1.83852 13.9637 1.60006 13.7879 1.42425C13.6121 1.24843 13.3736 1.14966 13.125 1.14966H8.90625C8.65761 1.14966 8.41915 1.24843 8.24334 1.42425C8.06752 1.60006 7.96875 1.83852 7.96875 2.08716V8.92435L10.4494 6.44278C10.5374 6.35476 10.6568 6.30532 10.7812 6.30532C10.9057 6.30532 11.0251 6.35476 11.1131 6.44278C11.2011 6.5308 11.2506 6.65018 11.2506 6.77466C11.2506 6.89914 11.2011 7.01851 11.1131 7.10653L7.83188 10.3878C7.78833 10.4314 7.7366 10.4661 7.67966 10.4897C7.62271 10.5133 7.56166 10.5255 7.5 10.5255C7.43834 10.5255 7.37729 10.5133 7.32034 10.4897C7.26339 10.4661 7.21167 10.4314 7.16812 10.3878L3.88687 7.10653C3.84329 7.06295 3.80872 7.01121 3.78513 6.95427C3.76155 6.89732 3.74941 6.83629 3.74941 6.77466C3.74941 6.71302 3.76155 6.65199 3.78513 6.59505C3.80872 6.53811 3.84329 6.48637 3.88687 6.44278C3.93046 6.3992 3.9822 6.36463 4.03914 6.34104C4.09608 6.31746 4.15711 6.30532 4.21875 6.30532C4.28039 6.30532 4.34142 6.31746 4.39836 6.34104C4.4553 6.36463 4.50704 6.3992 4.55062 6.44278L7.03125 8.92435V2.08716C7.03125 1.58988 7.22879 1.11296 7.58042 0.761333C7.93206 0.409702 8.40897 0.212158 8.90625 0.212158L13.125 0.212158C13.6223 0.212158 14.0992 0.409702 14.4508 0.761333C14.8025 1.11296 15 1.58988 15 2.08716V13.3372C15 13.8344 14.8025 14.3114 14.4508 14.663C14.0992 15.0146 13.6223 15.2122 13.125 15.2122H1.875C1.37772 15.2122 0.900805 15.0146 0.549175 14.663C0.197544 14.3114 0 13.8344 0 13.3372V2.08716C0 1.58988 0.197544 1.11296 0.549175 0.761333C0.900805 0.409702 1.37772 0.212158 1.875 0.212158L4.21875 0.212158C4.34307 0.212158 4.4623 0.261544 4.55021 0.349452C4.63811 0.43736 4.6875 0.556588 4.6875 0.680908C4.6875 0.805228 4.63811 0.924457 4.55021 1.01236C4.4623 1.10027 4.34307 1.14966 4.21875 1.14966H1.875Z" fill="#FFFFFF"/>
</g>
<defs>
<filter id="filter0_i_412_221" x="0" y="0.212158" width="16" height="15" filterUnits="userSpaceOnUse" color-interpolation-filters="sRGB">
<feFlood flood-opacity="0" result="BackgroundImageFix"/>
<feBlend mode="normal" in="SourceGraphic" in2="BackgroundImageFix" result="shape"/>
<feColorMatrix in="SourceAlpha" type="matrix" values="0 0 0 0 0 0 0 0 0 0 0 0 0 0 0 0 0 0 127 0" result="hardAlpha"/>
<feOffset dx="1"/>
<feGaussianBlur stdDeviation="7.05"/>
<feComposite in2="hardAlpha" operator="arithmetic" k2="-1" k3="1"/>
<feColorMatrix type="matrix" values="0 0 0 0 0 0 0 0 0 0 0 0 0 0 0 0 0 0 0.25 0"/>
<feBlend mode="normal" in2="shape" result="effect1_innerShadow_412_221"/>
</filter>
</defs>
</svg>
