<svg width="129" height="135" viewBox="0 0 129 135" fill="none" xmlns="http://www.w3.org/2000/svg">
<path d="M119.586 74.7378C119.586 74.4913 120.187 27.0768 120.187 27.0768L60.098 0L0.00882218 27.0789V62.9489C-0.0146501 85.4117 12.4421 106.394 33.1905 118.839L60.098 135L80.8264 122.555C92.0297 135.49 81.0681 94.8164 97.9541 88.6824C114.841 82.5484 102.836 98.6804 100.959 82.359C99.0796 66.0366 104.653 89.7888 86.7297 86.9085L119.586 74.7378ZM60.098 129.801L35.8581 115.239C16.4453 103.596 4.79131 83.9647 4.81595 62.9489V29.7561L60.098 4.84353L115.38 29.7561V72.8486C114.582 72.8052 113.791 73.6546 112.976 73.6546C112.162 73.6546 110.768 72.8052 109.972 72.8486C111.775 74.7378 110.573 32.4281 110.573 32.4281L60.098 9.68388L9.62309 32.4302V62.9489C9.60548 82.5145 20.4556 100.789 38.5257 111.63L60.098 124.584L75.8221 115.141C76.4946 116.464 77.2539 117.749 78.0954 118.99L60.098 129.801ZM74.0241 111.017L60.098 119.379L41.1945 108.026C40.2615 107.464 39.3578 106.875 38.4659 106.271V86.9085H33.6587V102.635C31.0205 100.431 28.6075 98.0161 26.448 95.4214V82.8329C26.4492 79.8542 28.6967 77.2574 31.9018 76.5318L48.2022 72.8486C48.7256 77.5462 52.5669 81.3943 57.6944 82.359V91.2411H62.5015V82.359C67.6291 81.3954 71.4691 77.5462 71.9914 72.8486L82.6913 75.2709C72.9362 84.94 69.6336 98.5598 74.0241 111.015V111.017ZM48.0801 45.7485H54.724C58.4338 45.7443 62.0978 45.0039 65.4555 43.5822H66.1069L72.1158 50.8026V59.8296L64.1047 65.2454H56.0912L48.0801 59.8296V45.7485ZM43.4725 41.4159C43.9596 38.6996 45.8784 36.3651 48.6212 35.155C53.9377 33.0225 59.9278 32.683 65.499 34.1977L66.0517 34.917H69.7122C71.0396 34.917 72.1158 35.887 72.1158 37.0833V43.5822L68.5105 39.2496H64.3382L63.8312 39.477C61.0017 40.7474 57.8845 41.4117 54.724 41.4159H43.4725ZM67.3087 68.4948V71.7443C67.3087 75.3333 64.0801 78.2432 60.098 78.2432C56.1159 78.2432 52.8873 75.3333 52.8873 71.7443V68.4948L54.4904 69.578H65.7055L67.3087 68.4948ZM72.1158 68.4102V65.2454L76.9229 61.9959V37.0833C76.9229 33.4932 73.6943 30.5844 69.7122 30.5844H68.1138C64.6364 28.6793 55.9786 28.2943 49.8464 30.0227C42.9702 31.5448 38.2206 37.2039 38.4659 43.5822V45.7485H43.273V61.9959L48.0801 65.2454V68.3996L30.7317 72.3314C25.3848 73.534 21.635 77.8667 21.6409 82.8329V88.6824C16.9042 80.7777 14.4255 71.9336 14.4302 62.9489V35.1074L60.098 14.5274L105.766 35.1074V62.9489C105.766 63.1975 105.768 77.9968 105.766 78.2432C98.7557 79.3729 103.404 70.1476 97.9541 74.2782L72.1158 68.4102ZM86.7297 96.1153C66.8181 96.1153 76.9229 117.852 76.9229 99.9064C76.9229 81.9592 75.0381 74.1962 94.9497 74.1962C114.861 74.1962 82.6913 81.9592 82.6913 99.9064C82.669 117.844 106.632 96.0942 86.7297 96.1153Z" fill="#02133C"/>
<ellipse cx="87.3386" cy="92.7905" rx="41.6618" ry="37.5494" fill="#1C90F5"/>
<path d="M82.2886 96.6707L73.334 89.3668L64.9043 96.2722L82.2886 110.482L109.771 82.7256L101.341 75.8209L82.2886 96.6707Z" fill="white"/>
</svg>
