<svg width="55" height="53" viewBox="0 0 55 53" fill="none" xmlns="http://www.w3.org/2000/svg">
<path d="M49.6946 39.9056C51.1929 39.9056 52.4559 40.4254 53.4838 41.4649C54.5117 42.5044 55.017 43.7172 54.9996 45.1033L34.0147 52.8999L15.7216 47.7022V24.3124H20.8176L39.8163 31.3033C41.1752 31.8404 41.8546 32.8107 41.8546 34.2141C41.8546 35.0284 41.5585 35.7387 40.9661 36.3451C40.3738 36.9515 39.6246 37.2721 38.7187 37.3067H31.4014L26.8282 35.5655L25.9658 38.0084L31.4014 39.9056H49.6946ZM39.2413 4.11921C41.0881 1.98814 43.4401 0.922607 46.2973 0.922607C48.6667 0.922607 50.6702 1.7889 52.3079 3.52147C53.9455 5.25405 54.8166 7.24651 54.9212 9.49886C54.9212 11.2834 54.0501 13.4145 52.3079 15.8921C50.5657 18.3697 48.8496 20.4401 47.1597 22.1034C45.4697 23.7666 42.8303 26.2355 39.2413 29.5101C35.6176 26.2355 32.952 23.7666 31.2446 22.1034C29.5373 20.4401 27.8212 18.3697 26.0964 15.8921C24.3717 13.4145 23.5267 11.2834 23.5615 9.49886C23.5615 7.14256 24.4065 5.15009 26.0964 3.52147C27.7864 1.89285 29.8247 1.02656 32.2116 0.922607C34.9991 0.922607 37.3423 1.98814 39.2413 4.11921ZM0 24.3124H10.495V52.8999H0V24.3124Z" fill="#21232F" fill-opacity="0.75"/>
</svg>
