<svg width="135" height="135" viewBox="0 0 135 135" fill="none" xmlns="http://www.w3.org/2000/svg">
<g clip-path="url(#clip0_413_245)">
<path d="M55.875 91H79.125C81.265 91 83 92.9589 83 95.375V121.625C83 124.041 81.265 126 79.125 126H55.875C53.735 126 52 124.041 52 121.625V95.375C52 92.9589 53.735 91 55.875 91Z" fill="#1C90F5"/>
<path d="M78.751 69.7493H56.251C53.7659 69.7493 51.751 71.7642 51.751 74.2493V83.2493C51.751 85.7344 53.7659 87.7493 56.251 87.7493H78.751C81.2361 87.7493 83.251 85.7344 83.251 83.2493V74.2493C83.251 71.7642 81.2361 69.7493 78.751 69.7493ZM78.751 76.4993H69.751V74.2493H78.751V76.4993ZM65.251 74.2493V76.4993H56.251V74.2493H65.251ZM56.251 80.9993H65.251V83.2493H56.251V80.9993ZM69.751 83.2493V80.9993H78.751V83.2493H69.751Z" fill="black"/>
<path d="M123.554 114.905C122.994 111.946 121.271 109.335 118.77 107.657C116.269 105.979 113.201 105.372 110.25 105.975V66.1818L114.284 70.216C117.026 72.9582 121.474 72.9582 124.216 70.216C126.958 67.4738 126.958 63.0266 124.216 60.2844L110.25 46.3185V18.0002C112.735 18.0002 114.75 15.9853 114.75 13.5002V9.00018C114.75 6.51508 112.735 4.50018 110.25 4.50018H87.75C85.2649 4.50018 83.25 6.51508 83.25 9.00018V13.5002C83.25 15.9853 85.2649 18.0002 87.75 18.0002V23.8185L72.2725 8.341C69.6017 5.79218 65.3983 5.79218 62.7275 8.341L10.7842 60.2844C8.04199 63.0266 8.04199 67.4738 10.7842 70.216C13.5264 72.9582 17.9736 72.9582 20.7158 70.216L24.75 66.1818V113.359C22.3 110.517 18.3373 109.502 14.8228 110.817C11.3071 112.131 8.98352 115.497 9 119.25C4.02979 119.25 0 123.28 0 128.25C0 129.493 1.00745 130.5 2.25 130.5H132.75C133.993 130.5 135 129.493 135 128.25C134.991 121.59 130.135 115.928 123.554 114.905ZM103.482 110.342C103.482 110.311 103.5 110.284 103.5 110.25V96.7502C103.5 95.5076 102.493 94.5002 101.25 94.5002H87.75C86.5074 94.5002 85.5 95.5076 85.5 96.7502V110.25C85.5 111.493 86.5074 112.5 87.75 112.5H101.25C101.66 112.489 102.059 112.364 102.4 112.138C101.653 113.65 101.26 115.314 101.25 117V117.225C96.8412 118.138 93.3992 121.589 92.4972 126H83.25V92.2502C83.25 91.0076 82.2426 90.0002 81 90.0002H54C52.7574 90.0002 51.75 91.0076 51.75 92.2502V126H38.05C37.225 121.176 33.8599 117.174 29.25 115.534V63.0002H105.75V108.058C104.888 108.707 104.124 109.476 103.482 110.342ZM87.75 9.00018H110.25V13.5002H87.75V9.00018ZM92.25 18.0002H105.75V41.8185L92.25 28.3185V18.0002ZM17.5342 67.0344C16.5487 68.0198 14.9513 68.0198 13.9658 67.0344C12.9803 66.0489 12.9803 64.4515 13.9658 63.466L65.9092 11.5226C66.7881 10.6437 68.2119 10.6437 69.0908 11.5226L121.034 63.466C122.02 64.4515 122.02 66.0489 121.034 67.0344C120.049 68.0198 118.451 68.0198 117.466 67.0344L72.2725 21.841C69.6368 19.2054 65.3632 19.2054 62.7275 21.841L17.5342 67.0344ZM65.9092 25.0226C66.7881 24.1437 68.2119 24.1437 69.0908 25.0226L102.568 58.5002H32.4316L65.9092 25.0226ZM5.10535 126C6.28967 123.96 8.85388 123.187 10.9688 124.231C11.8334 124.658 12.8727 124.486 13.5538 123.804C14.2361 123.123 14.4075 122.084 13.9812 121.219C13.6714 120.608 13.5066 119.935 13.5 119.25C13.4901 117.054 15.0721 115.175 17.2375 114.811C19.403 114.446 21.5134 115.703 22.2231 117.781C22.5494 118.716 23.4492 119.329 24.4391 119.289C24.5446 119.29 24.6489 119.277 24.75 119.25C28.8523 119.257 32.4338 122.03 33.4666 126H5.10535ZM56.25 126V94.5002H78.75V126H56.25ZM97.1345 126C98.0574 123.34 100.546 121.542 103.36 121.5C103.437 121.5 103.661 121.534 103.738 121.536C104.45 121.557 105.131 121.247 105.583 120.697C106.031 120.14 106.187 119.403 106.004 118.713C105.844 118.155 105.76 117.579 105.75 117C105.75 113.273 108.772 110.25 112.5 110.25C116.228 110.25 119.25 113.273 119.25 117C119.25 118.243 120.257 119.25 121.5 119.25C125.602 119.257 129.184 122.03 130.217 126H97.1345Z" fill="black"/>
<path d="M63 101.25H58.5V105.75H60.75V110.25H58.5V114.75H63C64.2426 114.75 65.25 113.743 65.25 112.5V103.5C65.25 102.257 64.2426 101.25 63 101.25Z" fill="black"/>
</g>
<defs>
<clipPath id="clip0_413_245">
<rect width="135" height="135" fill="white"/>
</clipPath>
</defs>
</svg>
