<svg width="52" height="53" viewBox="0 0 52 53" fill="none" xmlns="http://www.w3.org/2000/svg">
<path d="M47.4434 5.45196C41.0907 -0.858602 31.0238 -1.09091 21.8212 8.05073C13.8374 15.9814 15.6279 14.2037 13.1122 16.7025C6.97176 22.802 5.96324 31.9366 6.64879 38.031L24.7716 20.0275C25.4074 19.3962 26.4372 19.3962 27.072 20.0275C27.7068 20.6587 27.7068 21.6819 27.072 22.3131L0.714492 48.4977C-0.238164 49.4441 -0.238164 50.9794 0.714492 51.9257C1.66715 52.8721 3.21293 52.8721 4.16559 51.9257L10.8789 45.2566C16.1906 46.8433 28.3354 47.0918 35.9475 39.7076H25.9751L40.9627 34.7444C46.0398 29.7014 44.6575 31.0902 45.6661 30.0115H35.7353L49.0948 25.5876C53.7098 18.067 52.5794 10.5546 47.4434 5.45196Z" fill="#545454"/>
</svg>
