<svg width="67" height="73" viewBox="0 0 67 73" fill="none" xmlns="http://www.w3.org/2000/svg">
<g filter="url(#filter0_d_438_1016)">
<path d="M50.5253 26.9832C45.7879 24.6145 25.6538 36.162 17.3633 42.6759L46.6761 31.7207V40.8994L50.5253 42.6759V26.9832Z" fill="#5AA102"/>
<path d="M7 19.581L33.648 3L40.162 7.09868V3H44.3073V9.70692L60 19.581H52.0056L33.648 8.32961L14.9944 19.581H7Z" fill="#21232F"/>
<rect x="29.7988" y="13.3632" width="3.55307" height="3.55307" fill="#5AA102"/>
<rect x="33.9443" y="13.3632" width="3.55307" height="3.55307" fill="#5AA102"/>
<rect x="33.9443" y="17.5084" width="3.55307" height="3.55307" fill="#5AA102"/>
<rect x="29.7988" y="17.5084" width="3.55307" height="3.55307" fill="#5AA102"/>
<path d="M20.6204 17.2123L15.5869 20.1732L16.1791 42.9721L21.2126 38.2346C25.654 34.6816 41.0506 26.7858 50.8215 24.3184V20.1732L46.0841 17.2123V20.1732C38.7411 22.0681 26.0487 31.622 20.6204 36.162V17.2123Z" fill="#5AA102"/>
</g>
<g filter="url(#filter1_d_438_1016)">
<path d="M4.46875 54.1042V46.8315H9.58239V48.4224H6.44318V49.6724H9.26989V51.2633H6.44318V54.1042H4.46875ZM11.2896 54.1042H9.15891L11.5595 46.8315H14.2583L16.6589 54.1042H14.5282L12.9373 48.8344H12.8805L11.2896 54.1042ZM10.8919 51.2349H14.8975V52.7122H10.8919V51.2349ZM23.8074 49.5588H21.8045C21.7903 49.3931 21.7524 49.2427 21.6909 49.1078C21.6317 48.9729 21.5488 48.8569 21.4423 48.7598C21.3381 48.6604 21.2115 48.5846 21.0623 48.5325C20.9132 48.4781 20.7439 48.4508 20.5545 48.4508C20.2231 48.4508 19.9425 48.5313 19.7129 48.6923C19.4856 48.8533 19.3128 49.0841 19.1944 49.3848C19.0784 49.6855 19.0204 50.0465 19.0204 50.4679C19.0204 50.913 19.0796 51.2858 19.198 51.5865C19.3187 51.8848 19.4927 52.1097 19.72 52.2612C19.9473 52.4104 20.2207 52.4849 20.5403 52.4849C20.7226 52.4849 20.8859 52.4624 21.0304 52.4175C21.1748 52.3701 21.3002 52.3026 21.4068 52.215C21.5133 52.1274 21.5997 52.0221 21.666 51.899C21.7347 51.7735 21.7808 51.6327 21.8045 51.4764L23.8074 51.4906C23.7837 51.7984 23.6973 52.1121 23.5481 52.4317C23.399 52.7489 23.1871 53.0425 22.9125 53.3123C22.6402 53.5799 22.3029 53.7953 21.9004 53.9587C21.4979 54.122 21.0304 54.2037 20.4977 54.2037C19.8301 54.2037 19.2311 54.0605 18.7008 53.774C18.1729 53.4875 17.755 53.0661 17.4473 52.5098C17.1419 51.9534 16.9892 51.2728 16.9892 50.4679C16.9892 49.6582 17.1454 48.9764 17.4579 48.4224C17.7704 47.8661 18.1918 47.4459 18.7221 47.1618C19.2524 46.8753 19.8443 46.7321 20.4977 46.7321C20.957 46.7321 21.3796 46.7948 21.7654 46.9203C22.1513 47.0458 22.4899 47.2292 22.7811 47.4707C23.0723 47.7098 23.3066 48.0046 23.4842 48.355C23.6618 48.7053 23.7695 49.1066 23.8074 49.5588ZM24.7031 54.1042V46.8315H26.6776V49.6724H29.2912V46.8315H31.2656V54.1042H29.2912V51.2633H26.6776V54.1042H24.7031ZM34.0497 54.1042L31.9048 46.8315H34.1065L35.1009 51.306H35.1577L36.3366 46.8315H38.0696L39.2486 51.3202H39.3054L40.2997 46.8315H42.5014L40.3565 54.1042H38.4673L37.2315 50.0417H37.1747L35.9389 54.1042H34.0497ZM43.1406 54.1042V46.8315H48.3821V48.4224H45.1151V49.6724H48.1122V51.2633H45.1151V52.5133H48.3679V54.1042H43.1406ZM49.3613 54.1042V46.8315H52.5005C53.0403 46.8315 53.5126 46.9298 53.9174 47.1263C54.3223 47.3228 54.6371 47.6057 54.862 47.975C55.0869 48.3443 55.1994 48.787 55.1994 49.3031C55.1994 49.8239 55.0834 50.2631 54.8514 50.6206C54.6217 50.9781 54.2986 51.248 53.8819 51.4302C53.4676 51.6125 52.9835 51.7037 52.4295 51.7037H50.5545V50.1696H52.0318C52.2638 50.1696 52.4615 50.1412 52.6248 50.0844C52.7905 50.0252 52.9172 49.9317 53.0048 49.8038C53.0948 49.676 53.1397 49.5091 53.1397 49.3031C53.1397 49.0948 53.0948 48.9255 53.0048 48.7953C52.9172 48.6627 52.7905 48.5657 52.6248 48.5041C52.4615 48.4402 52.2638 48.4082 52.0318 48.4082H51.3358V54.1042H49.3613ZM53.6227 50.7662L55.4409 54.1042H53.296L51.5204 50.7662H53.6227ZM56.041 54.1042V46.8315H58.0154V49.7719H58.1149L60.3024 46.8315H62.6035L60.1461 50.0702L62.6603 54.1042H60.3024L58.6689 51.377L58.0154 52.2292V54.1042H56.041Z" fill="#21232F"/>
</g>
<g filter="url(#filter2_d_438_1016)">
<path d="M21.4688 67.1042V59.8315H23.4432V65.5133H26.3835V67.1042H21.4688ZM28.3207 59.8315L29.8121 64.9594H29.869L31.3604 59.8315H33.5906L31.19 67.1042H28.4911L26.0906 59.8315H28.3207ZM36.2654 59.8315V67.1042H34.291V59.8315H36.2654ZM39.1898 59.8315L40.6813 64.9594H40.7381L42.2296 59.8315H44.4597L42.0591 67.1042H39.3603L36.9597 59.8315H39.1898Z" fill="#5AA102"/>
</g>
<defs>
<filter id="filter0_d_438_1016" x="3" y="0" width="61" height="47.972" filterUnits="userSpaceOnUse" color-interpolation-filters="sRGB">
<feFlood flood-opacity="0" result="BackgroundImageFix"/>
<feColorMatrix in="SourceAlpha" type="matrix" values="0 0 0 0 0 0 0 0 0 0 0 0 0 0 0 0 0 0 127 0" result="hardAlpha"/>
<feOffset dy="1"/>
<feGaussianBlur stdDeviation="2"/>
<feComposite in2="hardAlpha" operator="out"/>
<feColorMatrix type="matrix" values="0 0 0 0 0 0 0 0 0 0 0 0 0 0 0 0 0 0 0.11 0"/>
<feBlend mode="normal" in2="BackgroundImageFix" result="effect1_dropShadow_438_1016"/>
<feBlend mode="normal" in="SourceGraphic" in2="effect1_dropShadow_438_1016" result="shape"/>
</filter>
<filter id="filter1_d_438_1016" x="0.46875" y="43.7321" width="66.1914" height="15.4717" filterUnits="userSpaceOnUse" color-interpolation-filters="sRGB">
<feFlood flood-opacity="0" result="BackgroundImageFix"/>
<feColorMatrix in="SourceAlpha" type="matrix" values="0 0 0 0 0 0 0 0 0 0 0 0 0 0 0 0 0 0 127 0" result="hardAlpha"/>
<feOffset dy="1"/>
<feGaussianBlur stdDeviation="2"/>
<feComposite in2="hardAlpha" operator="out"/>
<feColorMatrix type="matrix" values="0 0 0 0 0 0 0 0 0 0 0 0 0 0 0 0 0 0 0.11 0"/>
<feBlend mode="normal" in2="BackgroundImageFix" result="effect1_dropShadow_438_1016"/>
<feBlend mode="normal" in="SourceGraphic" in2="effect1_dropShadow_438_1016" result="shape"/>
</filter>
<filter id="filter2_d_438_1016" x="17.4688" y="56.8315" width="30.9912" height="15.2727" filterUnits="userSpaceOnUse" color-interpolation-filters="sRGB">
<feFlood flood-opacity="0" result="BackgroundImageFix"/>
<feColorMatrix in="SourceAlpha" type="matrix" values="0 0 0 0 0 0 0 0 0 0 0 0 0 0 0 0 0 0 127 0" result="hardAlpha"/>
<feOffset dy="1"/>
<feGaussianBlur stdDeviation="2"/>
<feComposite in2="hardAlpha" operator="out"/>
<feColorMatrix type="matrix" values="0 0 0 0 0 0 0 0 0 0 0 0 0 0 0 0 0 0 0.11 0"/>
<feBlend mode="normal" in2="BackgroundImageFix" result="effect1_dropShadow_438_1016"/>
<feBlend mode="normal" in="SourceGraphic" in2="effect1_dropShadow_438_1016" result="shape"/>
</filter>
</defs>
</svg>
