<svg width="19" height="14" viewBox="0 0 19 14" fill="none" xmlns="http://www.w3.org/2000/svg">
<path d="M17.5199 0.36543C17.5839 0.301507 17.5442 0.196533 17.4542 0.205806H2.0542C1.92126 0.207854 1.87801 0.364643 1.97221 0.458455L7.14391 5.60868C8.56238 7.02126 10.8564 7.01966 12.2729 5.60511L17.5199 0.36543Z" fill="white" fill-opacity="0.28"/>
<path d="M18.56 1.3059C18.5538 1.14575 18.3643 1.09957 18.2507 1.21266L10.486 8.9454C10.2799 9.15027 10.0011 9.26527 9.71046 9.26527C9.41986 9.26527 9.14106 9.15027 8.93496 8.9454L1.19561 1.2275C1.10772 1.13986 0.961517 1.18179 0.959961 1.3059V12.3059C0.959961 12.5976 1.07585 12.8774 1.28214 13.0837C1.48843 13.29 1.76822 13.4059 2.05996 13.4059H17.46C17.7517 13.4059 18.0315 13.29 18.2378 13.0837C18.4441 12.8774 18.56 12.5976 18.56 12.3059V1.3059ZM2.97179 12.1489C2.87037 12.2495 2.73331 12.3059 2.59047 12.3059C2.2914 12.3059 2.04896 12.0635 2.04896 11.7644V11.7507C2.04896 11.6027 2.10809 11.4608 2.2132 11.3565L5.65972 7.93844C5.87412 7.72581 6.22009 7.72652 6.43361 7.94004C6.64838 8.15482 6.64766 8.50326 6.432 8.71714L2.97179 12.1489ZM17.4451 11.7594C17.4472 12.0606 17.2037 12.3059 16.9024 12.3059C16.7593 12.3059 16.6219 12.2493 16.5203 12.1485L13.0604 8.71714C12.8448 8.50326 12.844 8.15482 13.0588 7.94004C13.2723 7.72652 13.6183 7.72581 13.8327 7.93844L17.2812 11.3584C17.3851 11.4615 17.444 11.6016 17.4451 11.748L17.4451 11.7594Z" fill="white" fill-opacity="0.28"/>
</svg>
