<svg width="27" height="20" viewBox="0 0 27 20" fill="none" xmlns="http://www.w3.org/2000/svg">
<path d="M25.0913 0.250633C25.1883 0.153779 25.1281 -0.00527093 24.9918 0.00877833H1.65846C1.45705 0.0118818 1.39152 0.24944 1.53425 0.39158L9.37015 8.19495C11.5193 10.3352 14.9952 10.3328 17.1414 8.18955L25.0913 0.250633Z" fill="white" fill-opacity="0.28"/>
<path d="M26.6667 1.67557C26.6574 1.43293 26.3701 1.36296 26.1981 1.5343L14.4333 13.2506C14.1211 13.561 13.6986 13.7352 13.2583 13.7352C12.818 13.7352 12.3956 13.561 12.0833 13.2506L0.357043 1.55678C0.223882 1.42399 0.00235804 1.48753 0 1.67557V18.3422C0 18.7843 0.175595 19.2082 0.488155 19.5207C0.800716 19.8333 1.22464 20.0089 1.66667 20.0089H25C25.442 20.0089 25.866 19.8333 26.1785 19.5207C26.4911 19.2082 26.6667 18.7843 26.6667 18.3422V1.67557ZM3.04823 18.1043C2.89456 18.2567 2.6869 18.3422 2.47047 18.3422C2.01734 18.3422 1.65 17.9749 1.65 17.5218V17.501C1.65 17.2767 1.73958 17.0617 1.89885 16.9038L7.12084 11.7249C7.4457 11.4027 7.96989 11.4038 8.2934 11.7273C8.61882 12.0527 8.61773 12.5807 8.29097 12.9047L3.04823 18.1043ZM24.9775 17.5142C24.9807 17.9706 24.6117 18.3422 24.1553 18.3422C23.9384 18.3422 23.7303 18.2565 23.5762 18.1038L18.334 12.9047C18.0073 12.5807 18.0062 12.0527 18.3316 11.7273C18.6551 11.4038 19.1793 11.4027 19.5042 11.7249L24.7291 16.9067C24.8866 17.0629 24.9759 17.2751 24.9774 17.4969L24.9775 17.5142Z" fill="white" fill-opacity="0.28"/>
</svg>
