<svg width="23" height="26" viewBox="0 0 23 26" fill="none" xmlns="http://www.w3.org/2000/svg">
<path d="M17.5585 21.8726L17.2991 22.048V22.3611V24.9658H8.25641V22.3611V21.9524L7.87374 21.8089C3.21261 20.061 0.851233 16.81 0.610307 13.3675H12.7778H13.3675V12.7778V2.55556C13.3675 2.03419 13.5746 1.53418 13.9433 1.16552C14.312 0.796855 14.812 0.589744 15.3333 0.589744H20.4444C20.9658 0.589744 21.4658 0.796855 21.8345 1.16552C22.2031 1.53418 22.4103 2.03419 22.4103 2.55556V12.7778C22.4103 16.5588 20.4841 19.8939 17.5585 21.8726ZM2.92611 14.7436H2.13467L2.361 15.502C2.78173 16.9118 4.09773 18.286 5.54267 19.3342C6.83422 20.2711 8.33549 21.0248 9.63248 21.3456V23V23.5897H10.2222H15.3333H15.9231V23V21.2305C16.9943 20.6682 17.9501 19.9071 18.7388 18.9867C19.6091 17.9709 20.2565 16.7837 20.639 15.502L20.8653 14.7436H20.0739H2.92611ZM15.3333 1.96581H14.7436V2.55556V12.7778V13.3675H15.3333H20.4444H21.0342V12.7778V2.55556V1.96581H20.4444H15.3333ZM18.5769 7.07692H17.2009V4.42308H18.5769V7.07692Z" stroke="#21232F" stroke-opacity="0.6" stroke-width="1.17949"/>
</svg>
