<svg width="21" height="27" viewBox="0 0 21 27" fill="none" xmlns="http://www.w3.org/2000/svg">
<path d="M5.30769 21.0001C5.30769 21.4462 4.94608 21.8078 4.5 21.8078C4.05392 21.8078 3.69231 21.4462 3.69231 21.0001C3.69231 20.554 4.05392 20.1924 4.5 20.1924C4.94608 20.1924 5.30769 20.554 5.30769 21.0001Z" stroke="#21232F" stroke-opacity="0.6" stroke-width="1.38462"/>
<path d="M11.3077 21.0001C11.3077 21.4462 10.9461 21.8078 10.5 21.8078C10.0539 21.8078 9.69231 21.4462 9.69231 21.0001C9.69231 20.554 10.0539 20.1924 10.5 20.1924C10.9461 20.1924 11.3077 20.554 11.3077 21.0001Z" stroke="#21232F" stroke-opacity="0.6" stroke-width="1.38462"/>
<path d="M17.3077 21.0001C17.3077 21.4462 16.9461 21.8078 16.5 21.8078C16.0539 21.8078 15.6923 21.4462 15.6923 21.0001C15.6923 20.554 16.0539 20.1924 16.5 20.1924C16.9461 20.1924 17.3077 20.554 17.3077 21.0001Z" stroke="#21232F" stroke-opacity="0.6" stroke-width="1.38462"/>
<path d="M11.3077 3.12V3.71943L11.901 3.80519C16.6529 4.49205 20.3077 8.55665 20.3077 13.5V15.8077H0.692308V13.5C0.692308 8.55665 4.34706 4.49205 9.09904 3.80519L9.69231 3.71943V3.12V0.692308H11.3077V3.12Z" stroke="#21232F" stroke-opacity="0.6" stroke-width="1.38462"/>
<path d="M5.30769 25.5001C5.30769 25.9462 4.94608 26.3078 4.5 26.3078C4.05392 26.3078 3.69231 25.9462 3.69231 25.5001C3.69231 25.054 4.05392 24.6924 4.5 24.6924C4.94608 24.6924 5.30769 25.054 5.30769 25.5001Z" stroke="#21232F" stroke-opacity="0.6" stroke-width="1.38462"/>
<path d="M11.3077 25.5001C11.3077 25.9462 10.9461 26.3078 10.5 26.3078C10.0539 26.3078 9.69231 25.9462 9.69231 25.5001C9.69231 25.054 10.0539 24.6924 10.5 24.6924C10.9461 24.6924 11.3077 25.054 11.3077 25.5001Z" stroke="#21232F" stroke-opacity="0.6" stroke-width="1.38462"/>
<path d="M17.3077 25.5001C17.3077 25.9462 16.9461 26.3078 16.5 26.3078C16.0539 26.3078 15.6923 25.9462 15.6923 25.5001C15.6923 25.054 16.0539 24.6924 16.5 24.6924C16.9461 24.6924 17.3077 25.054 17.3077 25.5001Z" stroke="#21232F" stroke-opacity="0.6" stroke-width="1.38462"/>
</svg>
