<svg width="30" height="32" viewBox="0 0 30 32" fill="none" xmlns="http://www.w3.org/2000/svg">
<path d="M3.44943 19.0451L7.12592 30.2617L6.30976 30.4945L6.57943 31.4399L7.43233 31.1966L7.65847 31.8867L8.59271 31.5804L8.37847 30.9268L25.9201 25.9236L25.8569 26.4321L26.8325 26.5533L26.9471 25.6306L27.9875 25.3338L27.7179 24.3884L27.0788 24.5707L28.9685 9.35681L29.396 9.68969L30 8.91394L29.1096 8.22066L29.2551 7.04876L28.2796 6.92757L28.2063 7.51734L20.6834 1.65979L20.9405 1.62753L20.8181 0.652057L19.5874 0.806508L18.5516 0L17.9476 0.775681L18.2093 0.979456L1.7141 3.04972L1.52882 1.96545L0.559636 2.13105L0.737566 3.17229L0 3.26483L0.12244 4.2403L0.903352 4.14234L3.44943 19.0451ZM17.0332 5.07814L15.7428 5.2707L14.9718 4.50723L14.28 5.20581L14.5285 5.45194L4.70366 6.91804L4.0843 5.5839L18.6809 3.5284L25.2013 8.55086L20.0208 9.50696L16.6152 6.13451L17.1784 6.05043L17.0332 5.07814ZM3.65158 4.6519L3.27673 3.84446L17.7875 2.02325L17.3925 2.53605L17.5912 2.68907L3.65158 4.6519ZM20.0431 3.33658L20.3829 3.28875L20.2853 2.59571L27.4101 8.14325L26.5012 8.31102L20.0431 3.33658ZM19.9741 2.35345L18.9534 2.49719L18.2609 1.96377L19.3053 1.83274L19.9741 2.35345ZM2.51294 3.94031L2.28612 4.04556L2.63408 4.79514L2.02686 4.88065L1.87976 4.01978L2.51294 3.94031ZM26.0518 24.8637L8.07212 29.9918L4.40659 18.8073L2.19258 5.85015L3.06679 5.72702L3.68995 7.06919L2.64759 7.22476L2.7927 8.19718L4.12154 7.99888L4.50698 8.82906L5.39875 8.41509L5.13531 7.84761L15.4009 6.31568L18.843 9.72431L17.9724 9.88499L18.1509 10.8518L19.6941 10.567L20.3638 11.2301L21.0556 10.5316L20.8719 10.3497L26.2484 9.35743L27.093 10.0081L27.6931 9.22914L27.5482 9.11753L27.9739 9.039L27.8755 8.50564L28.0652 8.65337L26.0518 24.8637ZM20.8833 14.2503L19.8318 14.475L16.6402 10.6432L17.2236 10.5362L17.0464 9.56912L15.9179 9.77607L15.2518 8.97628L14.4964 9.60549L14.808 9.97959L5.48239 11.6896L5.06967 10.7064L4.16314 11.087L4.49228 11.8711L3.44214 12.0637L3.61945 13.0307L4.88184 12.7993L5.62874 14.5786L4.53252 14.8069L4.73305 15.7694L6.01637 15.502L6.39166 16.396L7.29819 16.0155L6.99688 15.2978L11.6244 14.3337L12.6598 16.0072L11.7563 16.2003L11.9617 17.1617L13.2092 16.8951L13.7842 17.8245L14.6203 17.3072L14.2304 16.677L19.4565 15.5605L20.0512 16.2746L20.8067 15.6454L20.5427 15.3284L21.0889 15.2117L20.8833 14.2503ZM13.681 15.7892L12.6485 14.1205L13.3849 13.967L13.1844 13.0046L12.0981 13.2309L11.5889 12.4078L10.7528 12.9252L11.074 13.4442L6.6092 14.3744L5.87194 12.6178L15.5302 10.8468L18.7456 14.7072L13.681 15.7892ZM15.0277 20.906L14.1124 21.1334L12.9986 19.1858L13.8275 18.9722L13.5822 18.0201L12.4926 18.301L12.0632 17.5501L11.2097 18.0382L11.5055 18.5554L7.41415 19.6099L7.07803 18.6911L6.15469 19.0289L6.45742 19.8564L5.29917 20.1549L5.54448 21.107L6.79691 20.7842L7.52357 22.7704L6.53035 23.0172L6.76745 23.9713L7.8633 23.699L8.12101 24.4036L9.04436 24.0657L8.82295 23.4606L13.6279 22.2668L14.0466 22.9989L14.9 22.5108L14.6196 22.0204L15.2648 21.8601L15.0277 20.906ZM8.48322 22.532L7.75357 20.5376L12.0115 19.4403L13.1207 21.3798L8.48322 22.532Z" fill="#21232F" fill-opacity="0.6"/>
</svg>
