<svg width="27" height="19" viewBox="0 0 27 19" fill="none" xmlns="http://www.w3.org/2000/svg">
<path d="M7.32731 10.991C9.35453 10.991 10.991 9.35453 10.991 7.32731C10.991 5.30009 9.35453 3.66365 7.32731 3.66365C5.30009 3.66365 3.66365 5.30009 3.66365 7.32731C3.66365 9.35453 5.30009 10.991 7.32731 10.991ZM7.32731 6.10609C7.99898 6.10609 8.54853 6.65564 8.54853 7.32731C8.54853 7.99898 7.99898 8.54853 7.32731 8.54853C6.65564 8.54853 6.10609 7.99898 6.10609 7.32731C6.10609 6.65564 6.65564 6.10609 7.32731 6.10609ZM21.9819 2.44244H12.2122V12.2122H2.44244V0H0V18.3183H2.44244V14.6546H24.4244V18.3183H26.8668V7.32731C26.8668 4.62842 24.6808 2.44244 21.9819 2.44244ZM24.4244 12.2122H14.6546V4.88487H21.9819C23.3253 4.88487 24.4244 5.98397 24.4244 7.32731V12.2122Z" fill="#21232F" fill-opacity="0.6"/>
</svg>
