<svg width="28" height="26" viewBox="0 0 28 26" fill="none" xmlns="http://www.w3.org/2000/svg">
<path d="M26.6704 12.6548L15.0626 1.05301L14.2846 0.27495C14.1073 0.0988399 13.8676 0 13.6177 0C13.3678 0 13.128 0.0988399 12.9508 0.27495L0.564893 12.6548C0.383239 12.8358 0.239675 13.0513 0.142675 13.2886C0.0456748 13.5259 -0.00279569 13.7803 0.000124519 14.0367C0.0121409 15.0941 0.892339 15.9383 1.94978 15.9383H3.22652V25.7226H24.0088V15.9383H25.3126C25.8263 15.9383 26.3099 15.737 26.6734 15.3735C26.8524 15.1951 26.9942 14.983 27.0907 14.7494C27.1871 14.5158 27.2362 14.2654 27.2352 14.0127C27.2352 13.502 27.0339 13.0183 26.6704 12.6548ZM15.3 23.5597H11.9354V17.4313H15.3V23.5597ZM21.8459 13.7753V23.5597H17.2226V16.7103C17.2226 16.0464 16.6848 15.5087 16.0209 15.5087H11.2144C10.5505 15.5087 10.0128 16.0464 10.0128 16.7103V23.5597H5.38946V13.7753H2.50554L13.6207 2.66921L14.3146 3.36315L24.7328 13.7753H21.8459Z" fill="#21232F" fill-opacity="0.6"/>
</svg>
