<svg width="52" height="53" viewBox="0 0 52 53" fill="none" xmlns="http://www.w3.org/2000/svg">
<path d="M50.651 8.16977L44.1886 1.7431C43.6331 1.21642 42.8951 0.922607 42.1276 0.922607C41.3602 0.922607 40.6221 1.21642 40.0667 1.7431L34.3204 7.47499H3.49317C2.56672 7.47499 1.67822 7.84099 1.02313 8.49246C0.368029 9.14394 0 10.0275 0 10.9489V49.1614C0 50.0828 0.368029 50.9664 1.02313 51.6178C1.67822 52.2693 2.56672 52.6353 3.49317 52.6353H41.918C42.8445 52.6353 43.733 52.2693 44.3881 51.6178C45.0432 50.9664 45.4112 50.0828 45.4112 49.1614V17.4797L50.651 12.2689C51.197 11.7251 51.5038 10.9879 51.5038 10.2193C51.5038 9.45078 51.197 8.71363 50.651 8.16977ZM25.9019 32.0179L18.5837 33.6332L20.3303 26.425L37.0101 9.80248L42.6516 15.4128L25.9019 32.0179ZM44.5379 13.4327L38.8965 7.82238L42.1276 4.60905L47.7691 10.2193L44.5379 13.4327Z" fill="#545454"/>
</svg>
