<svg width="16" height="16" viewBox="0 0 16 16" fill="none" xmlns="http://www.w3.org/2000/svg">
<path d="M15.6881 12.0845C15.5535 13.1074 15.0511 14.0463 14.2749 14.7259C13.4986 15.4054 12.5015 15.7792 11.4698 15.7773C5.47611 15.7773 0.599616 10.9009 0.599616 4.90714C0.597767 3.87545 0.971534 2.87836 1.65111 2.1021C2.33068 1.32584 3.26959 0.823498 4.29247 0.688898C4.55113 0.657315 4.81306 0.710233 5.03918 0.839752C5.26529 0.96927 5.44345 1.16844 5.54707 1.40754L7.13949 4.96258C7.14073 4.96535 7.14137 4.96834 7.14137 4.97137C7.14137 4.97432 7.14197 4.97723 7.14313 4.97993C7.22118 5.16184 7.25333 5.36016 7.23673 5.55745C7.22 5.75622 7.1543 5.94775 7.0455 6.11494C7.03191 6.13532 7.01757 6.1542 7.00247 6.17307L6.78276 6.4335C5.96145 7.40709 5.76737 8.81087 6.67182 9.70776C7.57637 10.6047 8.98886 10.4097 9.95908 9.58422L10.1994 9.37978C10.2174 9.36461 10.2363 9.3505 10.256 9.33751C10.423 9.22609 10.6152 9.15808 10.8152 9.13962C11.0151 9.12117 11.2165 9.15286 11.4011 9.23182L11.4109 9.23635L14.9672 10.8299C15.2067 10.9331 15.4063 11.1111 15.5363 11.3373C15.6662 11.5634 15.7195 11.8256 15.6881 12.0845Z" fill="white" fill-opacity="0.28"/>
</svg>
