<svg width="15" height="15" viewBox="0 0 15 15" fill="none" xmlns="http://www.w3.org/2000/svg">
<path d="M14.8913 11.2554C14.7585 12.2649 14.2627 13.1916 13.4966 13.8622C12.7305 14.5329 11.7464 14.9018 10.7282 14.9C4.81279 14.9 6.74135e-06 10.0872 6.74135e-06 4.17189C-0.00181852 3.15368 0.367065 2.16962 1.03776 1.40351C1.70845 0.637403 2.63509 0.141629 3.64461 0.00878933C3.89989 -0.0223811 4.15841 0.0298446 4.38157 0.15767C4.60473 0.285496 4.78056 0.482066 4.88282 0.718036L6.45443 4.2266C6.45566 4.22933 6.45629 4.23229 6.45629 4.23528V4.23528C6.45629 4.23819 6.45689 4.24106 6.45803 4.24373C6.53506 4.42326 6.56679 4.61899 6.5504 4.8137C6.53389 5.00987 6.46905 5.1989 6.36167 5.3639C6.34826 5.38402 6.33411 5.40264 6.3192 5.42127L6.10238 5.67829C5.29179 6.63915 5.10025 8.0246 5.99289 8.90976V8.90976C6.88562 9.79502 8.27964 9.60257 9.23718 8.78784L9.47433 8.58606C9.49214 8.57109 9.5108 8.55716 9.53021 8.54434C9.69508 8.43438 9.88476 8.36725 10.0821 8.34904C10.2794 8.33083 10.4782 8.3621 10.6604 8.44004L10.6701 8.44451L14.1798 10.0172C14.4162 10.1191 14.6133 10.2948 14.7415 10.518C14.8698 10.7412 14.9223 10.9999 14.8913 11.2554Z" fill="white" fill-opacity="0.28"/>
</svg>
