<svg width="132" height="132" viewBox="0 0 132 132" fill="none" xmlns="http://www.w3.org/2000/svg">
<g clip-path="url(#clip0_413_241)">
<path d="M87.9644 34.2433C89.4936 29.7087 93.4939 26.326 98.3674 25.6783L101.644 18.0074L90.37 6.73639L83.724 11.062C81.1989 9.6399 78.5283 8.53276 75.7547 7.75621L74.1132 0H57.8877L56.2462 7.75621C53.4727 8.53276 50.7999 9.6399 48.2769 11.062L41.631 6.73639L30.3662 18.0011L33.5806 25.6586C38.4665 26.3104 42.3909 29.8615 43.9617 34.444L44.7091 32.8087C48.5222 24.5182 56.8783 19.1613 65.9994 19.1613C75.0395 19.1613 83.3664 24.4496 87.2107 32.6382L87.9644 34.2433Z" fill="#1C90F5"/>
<path d="M83.4849 58.0633L74.5156 55.8189V54.7991C78.4836 52.0297 80.9047 47.4545 80.9047 42.581V38.8594C80.9047 30.5886 74.4241 23.6671 66.4589 23.4259C62.3776 23.296 58.5416 24.7951 55.6246 27.6268C52.7055 30.4586 51.0983 34.2562 51.0983 38.323V42.581C51.0983 47.4545 53.5174 52.0276 57.4854 54.797V55.8189L48.5181 58.0633C43.7704 59.2495 40.4531 63.4971 40.4531 68.3914V72.1515L46.3932 70.8313C48.1054 70.4498 49.855 70.2585 51.6066 70.2585C54.0912 70.2585 56.5612 70.6442 58.9262 71.3999L68.6732 74.5166C69.7252 74.5166 70.7731 74.6631 71.7836 74.9532L85.1628 78.7746H87.2918L91.5499 76.5323V68.3914C91.5499 63.4971 88.2326 59.2495 83.4849 58.0633Z" fill="#1C90F5"/>
<path d="M132 55.3553H127.216L120.086 59.1071C119.283 58.6642 118.448 58.289 117.548 58.0634L108.579 55.8189V54.7991C112.547 52.0297 114.968 47.4546 114.968 42.5811V38.8595C114.968 30.5887 108.487 23.6672 100.522 23.4261C96.4468 23.3065 92.6046 24.7952 89.6876 27.6269C86.7685 30.4587 85.1613 34.2563 85.1613 38.323V42.5811C85.1613 47.4546 87.5804 52.0276 91.5484 54.7971V55.8189L83.0323 57.9511L83.4834 58.0634C85.4555 58.5551 87.1583 59.5967 88.4993 60.9721L95.8065 59.1466V52.404L94.744 51.7896C91.459 49.8903 89.4194 46.3599 89.4194 42.5811V38.323C89.4194 35.4195 90.567 32.7042 92.6535 30.6822C94.7378 28.6613 97.503 27.5718 100.394 27.6841C106.082 27.8546 110.71 32.8684 110.71 38.8595V42.5811C110.71 46.3599 108.668 49.8903 105.381 51.7937L104.316 52.4092L104.325 59.1466L114.962 61.8037L86.7643 76.6456H85.4596L72.3705 72.9053C71.3413 72.6131 70.2789 72.4936 69.2123 72.4531L59.5744 69.3728C55.1823 67.9652 50.4283 67.7552 45.9322 68.7512L33.8129 71.4447L33.9855 70.8417L34.0645 66.907L22.8362 60.3567L27.6774 59.1466V52.404L26.615 51.7896C23.33 49.8903 21.2903 46.3599 21.2903 42.5811V38.323C21.2903 35.4195 22.438 32.7042 24.5244 30.6822C26.6087 28.6613 29.3802 27.5718 32.265 27.6841C37.9525 27.8546 42.5806 32.8684 42.5806 38.8595V42.5811C42.5806 46.3599 40.5389 49.8903 37.2518 51.7937L36.1873 52.4092L36.1956 59.1466L43.5007 60.9721C44.8438 59.5967 46.5445 58.5551 48.5166 58.0634L48.9677 57.9511L40.4495 55.8189V54.7991C44.4176 52.0297 46.8387 47.4546 46.8387 42.5811V38.8595C46.8387 30.5887 40.3581 23.6672 32.3929 23.4261C28.3157 23.3065 24.4756 24.7952 21.5585 27.6269C18.6394 30.4587 17.0323 34.2563 17.0323 38.323V42.5811C17.0323 47.4546 19.4513 52.0276 23.4194 54.7971V55.8189L17.5687 57.2816L6.96406 51.0972H0V95.2133L20.9452 102.194H25.0244L25.5338 100.41L31.9542 104.264C32.0592 107.755 34.8587 110.564 38.3465 110.686C38.4692 114.159 41.2604 116.951 44.7336 117.073C44.8563 120.547 47.6475 123.338 51.1207 123.46C51.2475 127.015 54.1583 129.871 57.7417 129.871C59.0723 129.871 60.377 129.457 61.4737 128.718L63.3595 130.383C64.5415 131.424 66.0634 132 67.6436 132H68.0376C71.5804 132 74.4631 129.136 74.5078 125.605C78.0122 125.56 80.8502 122.722 80.8949 119.218C84.4014 119.173 87.2415 116.331 87.282 112.825C90.8207 112.741 93.6774 109.85 93.6774 106.292C93.6774 106.078 93.667 105.867 93.6452 105.654L132 86.4778V55.3553ZM4.25806 55.3553H5.81014L21.1219 64.2862L13.3959 95.1894L4.25806 92.1424V55.3553ZM21.6355 97.9359L17.445 96.5398L24.9506 66.5202L29.8065 69.352V69.9602L21.8143 97.9359H21.6355ZM36.1936 104.065C36.1936 103.437 36.4472 102.822 36.8921 102.377L40.6346 98.6345C41.0795 98.1896 41.6949 97.9359 42.3228 97.9359C43.6389 97.9359 44.7097 99.0067 44.7097 100.323C44.7097 100.951 44.456 101.566 44.0111 102.011L40.2687 105.753C39.8237 106.198 39.2083 106.452 38.5804 106.452C37.2643 106.452 36.1936 105.381 36.1936 104.065ZM42.5806 110.452C42.5806 109.824 42.8343 109.209 43.2792 108.764L47.0217 105.022C47.4666 104.577 48.082 104.323 48.7099 104.323C50.026 104.323 51.0968 105.394 51.0968 106.71C51.0968 107.338 50.8431 107.953 50.3982 108.398L46.6558 112.141C46.2108 112.586 45.5954 112.839 44.9675 112.839C43.6514 112.839 42.5806 111.768 42.5806 110.452ZM48.9677 116.839C48.9677 116.212 49.2214 115.596 49.6663 115.151L53.4088 111.409C53.8537 110.964 54.4691 110.71 55.097 110.71C56.4131 110.71 57.4839 111.781 57.4839 113.097C57.4839 113.725 57.2302 114.34 56.7853 114.785L53.0428 118.528C52.5979 118.973 51.9825 119.226 51.3546 119.226C50.0385 119.226 48.9677 118.156 48.9677 116.839ZM57.7417 125.613C56.4256 125.613 55.3548 124.543 55.3548 123.227C55.3548 122.599 55.6085 121.983 56.0534 121.538L59.7959 117.796C60.2408 117.351 60.8562 117.097 61.4841 117.097C62.8002 117.097 63.871 118.168 63.871 119.484C63.871 120.112 63.6173 120.727 63.1724 121.172L59.4299 124.915C58.985 125.36 58.3696 125.613 57.7417 125.613ZM68.0376 127.742H67.6436C67.1009 127.742 66.5811 127.545 66.1767 127.186L64.5841 125.782L66.183 124.183C66.7537 123.612 67.1965 122.933 67.524 122.205L69.4597 123.816C69.966 124.238 70.2581 124.86 70.2581 125.522C70.2581 126.746 69.2622 127.742 68.0376 127.742ZM87.1302 108.581H86.7622C86.2279 108.581 85.706 108.392 85.2975 108.049L73.7521 98.4277L71.0242 101.7L82.236 111.042C82.7401 111.464 83.0323 112.085 83.0323 112.748C83.0323 113.972 82.0364 114.968 80.8117 114.968H80.3471C79.8304 114.968 79.3252 114.785 78.927 114.453L67.3629 104.817L64.6351 108.089L75.8468 117.432C76.3531 117.851 76.6452 118.473 76.6452 119.135C76.6452 120.359 75.6493 121.355 74.4247 121.355C73.6076 121.355 72.8112 121.065 72.1844 120.544L67.4325 116.584C66.3857 114.444 64.2348 112.952 61.716 112.863C61.5933 109.39 58.802 106.599 55.3289 106.476C55.2062 103.003 52.4149 100.212 48.9418 100.089C48.817 96.5346 45.9062 93.6779 42.3228 93.6779C40.5732 93.6779 38.8611 94.3869 37.624 95.6239L33.8816 99.3664C33.658 99.5899 33.473 99.8436 33.2848 100.095L26.7449 96.1708L32.4781 76.105L46.8512 72.9094C50.6217 72.0663 54.597 72.2493 58.2739 73.4261L61.4103 74.4293L50.7776 79.7456C48.3482 80.9629 46.8387 83.407 46.8387 86.1244V86.5454C46.8387 90.4781 50.0385 93.6779 53.9712 93.6779C55.2634 93.6779 56.5347 93.3265 57.6398 92.6601L65.5675 87.9062C67.1602 86.9519 69.2975 87.1608 70.6729 88.3979L88.6615 104.587C89.1428 105.024 89.4194 105.643 89.4194 106.292C89.4194 107.555 88.3933 108.581 87.1302 108.581ZM127.742 83.8457L91.8738 101.781C91.7573 101.658 91.6357 101.54 91.5079 101.426L73.5223 85.2366C71.9463 83.8145 69.9088 83.0327 67.786 83.0327C66.2339 83.0327 64.7099 83.4548 63.3751 84.2553L55.4442 89.0113C54.9993 89.2795 54.491 89.4198 53.9712 89.4198C52.3848 89.4198 51.0968 88.1318 51.0968 86.5454V86.1244C51.0968 85.0276 51.706 84.0442 52.6852 83.5546L64.5612 77.6166C66.5936 76.5988 69.0064 76.3712 71.1968 77.0012L84.576 80.8226L87.8163 80.9037L127.742 59.8899V83.8457Z" fill="#02133C"/>
</g>
<defs>
<clipPath id="clip0_413_241">
<rect width="132" height="132" fill="white"/>
</clipPath>
</defs>
</svg>
